<svg id="Layer_1" data-name="Layer 1" xmlns="http://www.w3.org/2000/svg" xmlns:xlink="http://www.w3.org/1999/xlink" viewBox="0 0 439.67 439.67"><defs><style>.cls-1{fill:url(#linear-gradient);}.cls-2,.cls-5{fill:none;stroke-miterlimit:10;}.cls-2{stroke-width:20px;stroke:url(#linear-gradient-2);}.cls-3,.cls-4,.cls-6,.cls-7{stroke-linejoin:round;stroke-width:7px;}.cls-3{fill:url(#linear-gradient-3);stroke:url(#linear-gradient-4);}.cls-4{fill:url(#linear-gradient-5);stroke:url(#linear-gradient-6);}.cls-5{stroke:#a0204c;stroke-linecap:round;stroke-width:5px;}.cls-6{fill:url(#linear-gradient-7);stroke:url(#linear-gradient-8);}.cls-7{fill:url(#linear-gradient-9);stroke:url(#linear-gradient-10);}</style><linearGradient id="linear-gradient" x1="219.83" y1="439.67" x2="219.83" gradientUnits="userSpaceOnUse"><stop offset="0.5" stop-color="#1a0c2b"/><stop offset="1" stop-color="#282d4f"/></linearGradient><linearGradient id="linear-gradient-2" x1="362.83" y1="116.96" x2="362.83" y2="409.66" gradientUnits="userSpaceOnUse"><stop offset="0" stop-color="#a0204c"/><stop offset="0.3" stop-color="#ff6c00"/></linearGradient><linearGradient id="linear-gradient-3" x1="51.33" y1="331.14" x2="116.69" y2="331.14" gradientUnits="userSpaceOnUse"><stop offset="0" stop-color="#ff6c00"/><stop offset="1" stop-color="#a0204c"/></linearGradient><linearGradient id="linear-gradient-4" x1="47.83" y1="331.71" x2="117.09" y2="331.71" xlink:href="#linear-gradient-3"/><linearGradient id="linear-gradient-5" x1="323.56" y1="331.14" x2="388.92" y2="331.14" gradientUnits="userSpaceOnUse"><stop offset="0" stop-color="#a0204c"/><stop offset="1" stop-color="#ff6c00"/></linearGradient><linearGradient id="linear-gradient-6" x1="323.16" y1="331.71" x2="392.42" y2="331.71" xlink:href="#linear-gradient-5"/><linearGradient id="linear-gradient-7" x1="430.33" y1="394.37" x2="513.47" y2="394.37" xlink:href="#linear-gradient-5"/><linearGradient id="linear-gradient-8" x1="426.83" y1="394.37" x2="516.97" y2="394.37" xlink:href="#linear-gradient-5"/><linearGradient id="linear-gradient-9" x1="212.19" y1="394.37" x2="295.33" y2="394.37" xlink:href="#linear-gradient-3"/><linearGradient id="linear-gradient-10" x1="208.69" y1="394.37" x2="298.83" y2="394.37" xlink:href="#linear-gradient-3"/></defs><title>Logo-LyricsFinder</title><rect class="cls-1" width="439.67" height="439.67" rx="12" ry="12"/><path class="cls-2" d="M486.89,403.14a167.43,167.43,0,0,0,40.4-109.46c0-92.07-73.63-166.72-164.46-166.72S198.37,201.61,198.37,293.68a167.43,167.43,0,0,0,40.4,109.46" transform="translate(-142.7 -72)"/><polyline class="cls-3" points="75.35 286.68 51.33 312.91 84.01 375.6 116.69 371.84"/><polyline class="cls-4" points="364.9 286.68 388.92 312.91 356.24 375.6 323.56 371.84"/><path class="cls-5" d="M452.18,412.8c-14.47,0-14.47-52.1-28.94-52.1s-14.47,52.1-28.94,52.1-14.47-52.1-28.94-52.1-14.48,52.1-28.95,52.1-14.47-52.1-28.94-52.1-14.48,52.1-29,52.1" transform="translate(-142.7 -72)"/><path class="cls-5" d="M448.89,412.3c-10.85,0-10.85-52.1-21.7-52.1s-10.86,52.1-21.71,52.1-10.85-52.1-21.71-52.1-10.85,52.1-21.7,52.1-10.86-52.1-21.71-52.1-10.85,52.1-21.71,52.1-10.85-52.1-21.71-52.1-10.86,52.1-21.71,52.1" transform="translate(-142.7 -72)"/><path class="cls-6" d="M513.47,353.4,490.9,336.77C453.57,364.17,435,401,430.33,444.85L461.21,452l50.39-95.06Z" transform="translate(-142.7 -72)"/><path class="cls-7" d="M212.19,353.4l22.57-16.63c37.33,27.4,55.86,64.27,60.57,108.08L264.45,452l-50.39-95.06Z" transform="translate(-142.7 -72)"/></svg>